PathFileType	4	(X/Y/Z)	55_2_46_p0_0-252_filt_butterworth.trc
DataRate	CameraRate	NumFrames	NumMarkers	Units	OrigDataRate	OrigDataStartFrame	OrigNumFrames
59.0	59.0	6	27	m	59.0	31	252
Frame#	Time	RHip			RKnee			RAnkle			RBigToe			RSmallToe			RHeel			LHip			LKnee			LAnkle			LBigToe			LSmallToe			LHeel			Neck			Head			Nose			RShoulder			RElbow			RWrist			RThumb			RIndex			RPinky			LShoulder			LElbow			LWrist			LThumb			LIndex			LPinky			
		X1	Y1	Z1	X2	Y2	Z2	X3	Y3	Z3	X4	Y4	Z4	X5	Y5	Z5	X6	Y6	Z6	X7	Y7	Z7	X8	Y8	Z8	X9	Y9	Z9	X10	Y10	Z10	X11	Y11	Z11	X12	Y12	Z12	X13	Y13	Z13	X14	Y14	Z14	X15	Y15	Z15	X16	Y16	Z16	X17	Y17	Z17	X18	Y18	Z18	X19	Y19	Z19	X20	Y20	Z20	X21	Y21	Z21	X22	Y22	Z22	X23	Y23	Z23	X24	Y24	Z24	X25	Y25	Z25	X26	Y26	Z26	X27	Y27	Z27	
31	0.5254237288135594	0.3382153958164331	0.5468244138502402	0.7763915070003106	0.3314024472306276	0.5848341431918308	1.2075050444518445	0.31846283629004446	0.6317180399671578	1.6452662263323483	0.29149944546094697	0.43196016884009575	1.6392516897400249	0.3508253059410423	0.4561065957596571	1.6578801008908128	0.30316635704010725	0.6813979082641253	1.7000218011351806	0.13443271425814274	0.571749632662953	0.791821655020341	0.14115876721923468	0.5996312552686277	1.1991522655296603	0.15436700856276436	0.6146536936693703	1.6031474868757887	0.12706065736228697	0.4192380090770852	1.6164284515174143	0.08299656659314636	0.4792863231655616	1.6414748569327782	0.17451518931159238	0.6615991107345582	1.683799367400296	0.2344497456330322	0.5572680773392695	0.2149739737636139	0.2239644832143308	0.5435164157429023	-0.0332047945883366	0.20265250055486392	0.4583494843556029	0.08423724806073433	0.3786369353366495	0.547820148692667	0.3010558882952873	0.39217768604419506	0.49081464701674826	0.5641888361938967	0.26687457544517235	0.3644395578768624	0.7326568284700687	0.20584123828891443	0.411311083677524	0.8450819531748113	0.206314581790854	0.4126922521418222	0.8504942137380939	0.21045527854105733	0.40029620811903055	0.8553756913258894	0.08466657390525956	0.6104968284772001	0.3079456954239985	0.0606189512509466	0.5216104382367328	0.5461820347445222	0.16001456564035765	0.40001592804273844	0.7262976264770692	0.22327797879592742	0.39741603057248126	0.8150202684291955	0.2255324767177081	0.3907995454558313	0.8572440865607456	0.1994363139872864	0.40075127684025547	0.8464761939120348
32	0.5423728813559322	0.3394725939295017	0.5496425717675756	0.7775041191288936	0.3327492389537303	0.588115672702879	1.2091092001086496	0.3188419447987551	0.6316054995642362	1.643105664929165	0.2914745200239201	0.43192585707665576	1.6391923686319336	0.35086496463025557	0.4561520902918568	1.657913817297751	0.30318522418326477	0.681408135512253	1.6999422126891734	0.1344477460807769	0.571736879329386	0.7918669514840293	0.14156794323613828	0.5982008683129522	1.1982906453330353	0.15407016105058124	0.6143259151806577	1.6014672893156445	0.1269836173807368	0.41901507463591525	1.6162454258322267	0.08299167381145342	0.47925773451503506	1.6414353672716304	0.1743907632122514	0.6615358050496352	1.6843690432107423	0.23440515344755244	0.5571466968872055	0.2158045368512884	0.224023383654603	0.5435560747952751	-0.03321772817025798	0.20263808668996908	0.4582436079788613	0.08416684989538697	0.37863429833070883	0.5478257853308288	0.30107537048602173	0.392176454745925	0.49063651955929755	0.5657890539047721	0.26695909806683815	0.36438345810580736	0.7337653959373654	0.2058728112112738	0.41125496359565816	0.8450066850895934	0.2062381935521545	0.4126363946175795	0.8503416366416454	0.21072252230420194	0.4007454863437183	0.8541772329193176	0.08469335455551286	0.6105581417822661	0.30790748948472335	0.06062607702983333	0.5216015170471575	0.546209972416361	0.15987989579773734	0.4000561565165326	0.7265221022492937	0.22335024652451735	0.3976386770954105	0.8150958677228591	0.22502385629425442	0.3896361029722606	0.8560141405637272	0.19937923516430495	0.400706065783021	0.8474771382660556
33	0.559322033898305	0.3395557823863872	0.5492409034678969	0.7778761841760122	0.33302512714193544	0.589176156055583	1.2084558237456955	0.31989838583864144	0.6315012414677106	1.6408754160708945	0.29143271459905135	0.4318871748270565	1.6390856179149802	0.3509027367026368	0.45672045343328493	1.6582661502543035	0.3031955572337684	0.6813683665521135	1.6998866265803145	0.13444662502703478	0.5717150256093066	0.7918405522666552	0.14158719566501782	0.598167134284121	1.1982366407426355	0.1539926977044511	0.6141818354976811	1.6007687030552729	0.12683212458866108	0.4188578692603495	1.615139358904667	0.08297831518712862	0.47924945193242374	1.6414112666716543	0.17439198546761323	0.6615141284175559	1.684370971993319	0.23438768170035154	0.5570909985415808	0.21611916405033332	0.22408441025412185	0.5436188552325938	-0.033304821532773324	0.20268415905391673	0.4581762249776472	0.08416153866130141	0.37863873383262037	0.547859537809404	0.30108012267808226	0.39218805089701786	0.49025064896227216	0.5673572011233334	0.2672094055056332	0.3645748597328404	0.7354896414333759	0.20604830808226232	0.41131183723611	0.8443707164365378	0.20624531944444174	0.41252490770867245	0.8500840175601363	0.2108536761073465	0.40097505341719386	0.8537622593417603	0.0847666716971327	0.6107736239866395	0.30787544095931507	0.060629809017838904	0.5215794169385428	0.5462403928829237	0.15991690768075845	0.4000334082045842	0.726954068098866	0.22333124914713975	0.39773966568172914	0.815134260899824	0.22545857153683324	0.39074684048392694	0.854712606476687	0.19953392138334725	0.4005894808470558	0.8486595893131818
34	0.576271186440678	0.3384195532051074	0.5458253484243022	0.7777779883838055	0.3327558828715326	0.588921344144293	1.2070965426443554	0.3213735914361018	0.6316600945765152	1.6405123759996731	0.29139435585223544	0.43186162182275906	1.6389895435122677	0.3508967351468962	0.45765198586292044	1.6588405303176983	0.3032476628508243	0.681164227935454	1.7002017463372943	0.13442467689668802	0.5716883071472327	0.7917459557176758	0.1415243475351114	0.5983201627934466	1.1987458830657463	0.1542352382909004	0.6141226031977307	1.6013385689258455	0.1266815553399281	0.4190364249787698	1.6130505193013214	0.08295833475239647	0.4792666377560814	1.6414003263929633	0.1745063785856756	0.6615295768993648	1.6838329896589637	0.23438896070314819	0.5570823098187819	0.2161153314191203	0.22411667905115037	0.543646451710024	-0.03336206343733591	0.20274666203598513	0.45812228305042924	0.08446529533165484	0.3786559126873577	0.5479130881825018	0.30104037742168427	0.39221815399292176	0.489860813939904	0.5679170604772508	0.26785258273939166	0.36574554005926935	0.73741655274902	0.2065678485756586	0.4119203192049269	0.844537607763622	0.2065636617596003	0.41254715699797545	0.8504152057231981	0.21045485167903558	0.40084095002634956	0.8533599314584841	0.08487496925552823	0.6110787883177747	0.3079528918150788	0.06063400768489562	0.5215381726247884	0.5462729335836227	0.16035945103532817	0.39883376985210495	0.7271318444271341	0.22333998512455863	0.39774206648197796	0.8151147444894041	0.22706795036562616	0.39398817583952395	0.8546631650690862	0.19976951605138343	0.4003144603203498	0.8494463370128595
35	0.5932203389830508	0.3367554331495199	0.541290222587097	0.7775809277287022	0.332501387936942	0.5884436483599433	1.2063484085646152	0.3225233611708015	0.6320488098985129	1.6425017335579555	0.29136376517042767	0.4318531522694634	1.6389438621676513	0.3506675839992494	0.45725821369941044	1.6585267419670717	0.3034248862953175	0.680762849698865	1.7012441718788238	0.13439505479498187	0.5716861756202939	0.7917744756829979	0.14151767741837873	0.598120259656673	1.1998139470962632	0.15469891071848815	0.613920866985237	1.602960893310883	0.12651690061996107	0.4196471606039861	1.6113328543582777	0.08294066304874353	0.47932247120879085	1.6413995358897855	0.17446766046648593	0.6615031435949607	1.6840713420184392	0.23439529233905243	0.5570899876306874	0.21605242677624167	0.22412279974417526	0.5436338272180457	-0.0333787264479248	0.2028075979090218	0.458018306513145	0.0852736302872866	0.37867880103318535	0.5479761159851532	0.30096156848151645	0.3922601347256488	0.48970743862646227	0.5675985645770226	0.2690702795224138	0.3684840418619618	0.739051097483277	0.20767836703293496	0.4141182830968317	0.846869259429001	0.20738269490200623	0.41286453769410036	0.8522651928606565	0.2092769381699765	0.4003550934648634	0.8526260051902236	0.08490734469660165	0.6110188999775403	0.30831895201744636	0.060642118907194516	0.5214914696026538	0.5463101882900203	0.16130242567702852	0.3954663243678873	0.7262148384931706	0.22359734463847097	0.3977860545188073	0.8150827114926893	0.22971763235911474	0.39809755344669084	0.856607652432557	0.19993577788183317	0.3999211563905293	0.8496677530175596
36	0.6101694915254238	0.33550008874061077	0.5379782629413652	0.7774665111043217	0.33241008365845826	0.5881376329045738	1.206291886144976	0.3229437234947504	0.6325735937559834	1.6457723489839187	0.2913285378245394	0.43185433088412195	1.638929798228831	0.35007615953951254	0.4531560048001584	1.655723941368321	0.30368367823324455	0.6803321544536188	1.7027633274726752	0.1344088865795029	0.5717787270954074	0.7923379364112391	0.1415657680109196	0.5976446795140238	1.201130190987656	0.1551120466000955	0.6135781167490545	1.6053593279063945	0.1263464979492377	0.4204080617736251	1.611680194619836	0.08293257713995908	0.47940103018597574	1.6414109501610474	0.17422932373989403	0.6614366265984647	1.6853102094558217	0.23439854661502002	0.5570961298984527	0.2160342217241294	0.22411952874580232	0.5436094745798357	-0.03337476309096786	0.2028345591616264	0.45782292153660975	0.08635640043606656	0.3787008903741463	0.548020532528465	0.3009641359269281	0.3923017916681545	0.48971646686482856	0.5671491390930624	0.2705554519931824	0.3720370180791049	0.740016992379634	0.20941110012097033	0.4185489885195848	0.8504921388945248	0.20873665409931352	0.4134891164642918	0.8555369102943823	0.2077047696422453	0.39978665017331316	0.8520835821537206	0.08458657954382834	0.6096541982151433	0.3089983767762989	0.06065112674414234	0.5214617065126677	0.5463416568156232	0.16242809712717618	0.3908066163830068	0.7241844987853661	0.22438527508555647	0.39804727676899043	0.8151246839851456	0.23243450008036032	0.40106856033166693	0.8596091526950377	0.19998871236047142	0.3995873618152307	0.8495926251193404
